<svg width="31" height="31" viewBox="0 0 31 31" fill="none" xmlns="http://www.w3.org/2000/svg">
<path fill-rule="evenodd" clip-rule="evenodd" d="M2 8.30309C2 4.78856 4.8491 1.93945 8.36364 1.93945H22.7879C26.3025 1.93945 29.1515 4.78857 29.1515 8.30309V22.7273C29.1515 26.2419 26.3025 29.091 22.7879 29.091H8.36364C4.84912 29.091 2 26.242 2 22.7273V8.30309ZM8.36364 4.48491C6.25492 4.48491 4.54545 6.19437 4.54545 8.30309V22.7273C4.54545 24.8361 6.25491 26.5455 8.36364 26.5455H22.7879C24.8967 26.5455 26.6061 24.8361 26.6061 22.7273V8.30309C26.6061 6.19436 24.8967 4.48491 22.7879 4.48491H8.36364ZM13.0303 10.4243C13.5124 10.4243 13.9531 10.6967 14.1687 11.1278L17.9868 18.7642C18.3012 19.3929 18.0464 20.1574 17.4177 20.4718C16.789 20.7861 16.0245 20.5313 15.7101 19.9026L14.1528 16.7879H11.9078L10.3505 19.9026C10.0361 20.5313 9.27164 20.7861 8.64294 20.4718C8.01424 20.1574 7.75941 19.3929 8.07376 18.7642L11.8919 11.1278C12.1075 10.6967 12.5482 10.4243 13.0303 10.4243ZM21.0909 10.4243C21.7938 10.4243 22.3636 10.9941 22.3636 11.697V19.3334C22.3636 20.0363 21.7938 20.6061 21.0909 20.6061C20.388 20.6061 19.8182 20.0363 19.8182 19.3334V11.697C19.8182 10.9941 20.388 10.4243 21.0909 10.4243Z" fill="#000"/>
</svg>
